<svg width="272" height="113" viewBox="0 0 272 113" fill="none" xmlns="http://www.w3.org/2000/svg">
<path fill-rule="evenodd" clip-rule="evenodd" d="M128.686 63.2678C148.388 60.395 143.971 69.2222 149.036 71.5952C151.595 72.7933 153.992 74.0429 156.732 74.0429C159.285 74.0429 162.444 73.6642 164.477 71.907C165.855 70.7166 166.791 69.2815 166.791 67.3877C166.791 66.4447 166.567 65.6151 165.983 64.8833C165.212 63.9197 163.511 63.1879 162.404 62.786C161.292 62.3815 160.1 62.0543 158.963 61.7374C156.855 61.1474 154.732 60.5908 152.612 60.0446C147.736 58.7847 141.439 56.7286 137.637 53.1884C133.479 49.3159 131.258 44.4591 131.258 38.6645C131.258 34.9285 132.299 31.4502 134.264 28.3119C136.375 24.9418 139.371 22.574 142.922 21.0023C146.995 19.1988 151.518 18.5933 155.922 18.5933C162.514 18.5933 169.709 19.8249 174.821 24.4678C179.381 28.6108 181.499 34.0345 181.71 40.2619L181.783 42.416C167.132 42.2124 170.859 42.3979 162.329 35.3407C160.62 33.9262 157.869 33.6377 155.761 33.6377C153.334 33.6377 150.529 34.0164 148.521 35.5417C147.751 36.1292 147.392 36.8094 147.392 37.8039C147.392 38.7598 147.821 39.4426 148.516 40.0507C150.438 41.7306 156.695 43.3125 159.132 43.9051C163.631 45.0027 168.999 46.4662 173.102 48.7027C176.272 50.4315 178.869 52.8406 180.749 55.9917C182.787 59.403 183.529 63.3503 183.529 67.3181C183.529 71.4586 182.398 75.3003 180.242 78.7915C177.976 82.463 174.796 85.0859 170.909 86.7607C166.457 88.6802 161.388 89.2676 156.599 89.2676C149.733 89.2676 142.518 87.8943 137.168 83.1406C132.056 78.5982 129.712 72.2264 128.932 65.4553L128.681 63.273L128.686 63.2678ZM186.538 19.7527C198.055 18.8973 203.279 25.8875 203.279 33.1868V56.6101C203.279 58.8439 203.295 61.0958 203.387 63.3271C203.435 64.4427 203.483 65.7877 203.699 66.8827C204.105 68.9568 205.084 70.6341 206.71 71.925C208.642 73.458 211.265 73.8625 213.641 73.8625C215.8 73.8625 218.543 73.5559 220.282 72.0951C221.612 70.9768 222.475 69.6267 222.764 67.8747C222.982 66.5349 223.08 65.1152 223.148 63.7599C223.253 61.6317 223.283 59.4881 223.283 57.3521V31.8547C223.283 27.8611 225.075 19.7501 240.022 19.7501V55.5794C240.022 58.9006 239.969 62.2475 239.766 65.5635C239.63 67.7974 239.427 70.1652 238.96 72.3527C238.253 75.6713 236.915 78.7425 234.769 81.337C232.596 83.9651 229.79 85.8357 226.714 87.1471C222.804 88.8142 218.211 89.2651 214.015 89.2651C209.488 89.2651 203.907 88.8992 199.726 86.9591C196.652 85.5317 193.856 83.5555 191.726 80.8346C189.876 78.4745 188.486 75.8259 187.818 72.8577C187.299 70.5362 187.023 68.0911 186.847 65.7181C186.609 62.5284 186.536 59.3077 186.536 56.1076V19.7579L186.538 19.7527Z" fill="white"/>
<path fill-rule="evenodd" clip-rule="evenodd" d="M18.026 26.3582L16.5329 31.3566L12.0107 46.2104L2.14561 79.1179L0 87.9296C15.6295 88.1512 18.9019 87.8832 23.5069 71.7927L47.7416 71.6537C52.3943 85.6056 55.7496 89.5245 73.073 87.8162L50.5799 5.00385C46.2308 4.8235 41.1189 4.7024 36.7975 5.07085C22.8042 6.26378 22.1291 15.1348 18.026 26.3634V26.3582ZM27.6878 55.5374L43.8141 55.6276L36.3934 23.3591L27.6878 55.54V55.5374Z" fill="white"/>
<path fill-rule="evenodd" clip-rule="evenodd" d="M73.5654 15.4347L74.0498 78.9928L74.115 87.7607C94.9518 88.2683 93.2704 79.4359 93.4009 60.5318C95.938 62.9538 100.548 70.972 102.533 74.1643C111.929 89.2706 118.938 90.7829 134.703 86.0266C130.73 82.7441 125.061 73.5691 122.823 69.3745C117.36 59.1405 113.45 55.1933 109.339 53.2867C118.092 45.0186 124.725 34.5939 132.936 26.1403C108.207 21.3737 108.92 36.3408 93.3155 50.6122L93.3908 2.53149C74.371 3.27354 73.8666 14.2779 73.5705 15.4347H73.5654Z" fill="white"/>
<path fill-rule="evenodd" clip-rule="evenodd" d="M260.463 0C266.835 0 272 5.33084 272 11.9061C272 18.4815 266.835 23.8123 260.463 23.8123C254.091 23.8123 248.927 18.4815 248.927 11.9061C248.927 5.33084 254.091 0 260.463 0ZM260.463 3.2413C265.098 3.2413 268.858 7.12153 268.858 11.9061C268.858 16.6908 265.098 20.5711 260.463 20.5711C255.826 20.5711 252.069 16.6908 252.069 11.9061C252.069 7.12153 255.828 3.2413 260.463 3.2413Z" fill="white"/>
<path fill-rule="evenodd" clip-rule="evenodd" d="M256.663 18.0143V6.58228H260.957C262.056 6.58228 262.839 6.68532 263.311 6.89145C263.78 7.09757 264.167 7.4531 264.47 7.9581C264.771 8.46568 264.922 9.07375 264.922 9.77972C264.922 10.6738 264.689 11.3952 264.229 11.9415C263.768 12.4877 263.11 12.8304 262.259 12.9721C262.696 13.2632 263.06 13.5827 263.343 13.928C263.629 14.2758 264.021 14.8941 264.515 15.7882L265.748 18.0195H263.308L261.828 15.5331C261.298 14.6339 260.937 14.0671 260.744 13.8429C260.555 13.6162 260.352 13.459 260.139 13.374C259.925 13.2864 259.587 13.2426 259.115 13.2426H258.693V18.0169H256.663V18.0143ZM258.693 11.4184H260.207C261.133 11.4184 261.722 11.3824 261.973 11.3051C262.224 11.2304 262.427 11.0783 262.586 10.849C262.744 10.6197 262.821 10.3157 262.821 9.93176C262.821 9.56847 262.744 9.27471 262.586 9.05312C262.427 8.83154 262.214 8.67958 261.946 8.59456C261.757 8.53787 261.203 8.50951 260.289 8.50951H258.691V11.4158L258.693 11.4184Z" fill="white"/>
<path d="M117.533 87.209C117.533 87.2131 117.533 87.2169 117.532 87.2202C117.531 87.2236 117.53 87.2264 117.528 87.2288C117.526 87.2311 117.524 87.2329 117.522 87.2342C117.519 87.2354 117.516 87.2361 117.513 87.2361C117.512 87.2361 117.51 87.2359 117.509 87.2356C117.507 87.2353 117.506 87.2348 117.505 87.2342C117.504 87.2335 117.502 87.2327 117.501 87.2317C117.5 87.2306 117.499 87.2294 117.497 87.228V87.2331C117.497 87.2335 117.497 87.2338 117.497 87.2341C117.497 87.2343 117.497 87.2345 117.496 87.2347C117.496 87.2349 117.495 87.235 117.494 87.2351C117.494 87.2351 117.493 87.2352 117.492 87.2352C117.491 87.2352 117.49 87.2351 117.489 87.2351C117.488 87.235 117.488 87.2349 117.487 87.2347C117.487 87.2345 117.487 87.2343 117.486 87.2341C117.486 87.2338 117.486 87.2335 117.486 87.2331V87.1639C117.486 87.1635 117.486 87.1632 117.486 87.1629C117.487 87.1627 117.487 87.1624 117.487 87.1623C117.488 87.162 117.489 87.1619 117.49 87.1618C117.49 87.1617 117.491 87.1616 117.493 87.1616C117.494 87.1616 117.495 87.1617 117.496 87.1618C117.497 87.1619 117.497 87.162 117.498 87.1623C117.498 87.1624 117.499 87.1627 117.499 87.1629C117.499 87.1632 117.499 87.1635 117.499 87.1639V87.1898C117.501 87.1886 117.502 87.1876 117.503 87.1868C117.504 87.1859 117.505 87.1852 117.507 87.1847C117.508 87.1842 117.509 87.1838 117.51 87.1835C117.511 87.1833 117.513 87.1831 117.514 87.1831C117.518 87.1831 117.521 87.1838 117.523 87.1852C117.525 87.1866 117.527 87.1885 117.529 87.1908C117.53 87.1932 117.532 87.1959 117.532 87.1991C117.533 87.2022 117.533 87.2055 117.533 87.209ZM117.52 87.2099C117.52 87.2079 117.519 87.206 117.519 87.2041C117.519 87.2023 117.518 87.2006 117.518 87.1992C117.517 87.1978 117.516 87.1966 117.515 87.1958C117.514 87.1949 117.512 87.1945 117.51 87.1945C117.509 87.1945 117.509 87.1946 117.508 87.1948C117.507 87.1951 117.506 87.1955 117.505 87.1961C117.504 87.1967 117.503 87.1975 117.502 87.1984C117.501 87.1993 117.5 87.2005 117.499 87.2019V87.2175C117.501 87.2199 117.503 87.2217 117.505 87.223C117.506 87.2242 117.508 87.2248 117.51 87.2248C117.512 87.2248 117.513 87.2244 117.514 87.2235C117.516 87.2226 117.517 87.2215 117.517 87.2201C117.518 87.2187 117.519 87.2171 117.519 87.2153C117.519 87.2135 117.52 87.2117 117.52 87.2099ZM117.571 87.2349L117.565 87.2515C117.565 87.2524 117.564 87.253 117.562 87.2534C117.561 87.2538 117.559 87.254 117.556 87.254C117.555 87.254 117.554 87.2539 117.553 87.2538C117.552 87.2536 117.551 87.2535 117.551 87.2532C117.55 87.2529 117.55 87.2525 117.55 87.2521C117.55 87.2517 117.55 87.2512 117.551 87.2506L117.557 87.2349C117.556 87.2347 117.556 87.2343 117.556 87.2339C117.555 87.2335 117.555 87.233 117.555 87.2325L117.539 87.1893C117.538 87.1881 117.538 87.1872 117.538 87.1866C117.538 87.1859 117.538 87.1854 117.539 87.185C117.539 87.1846 117.54 87.1844 117.541 87.1842C117.542 87.1841 117.543 87.184 117.545 87.184C117.546 87.184 117.547 87.1841 117.548 87.1841C117.549 87.1842 117.55 87.1843 117.55 87.1845C117.551 87.1847 117.551 87.1851 117.551 87.1855C117.552 87.1859 117.552 87.1865 117.552 87.1874L117.563 87.2188H117.563L117.573 87.1867C117.574 87.1858 117.574 87.1852 117.574 87.1849C117.575 87.1846 117.575 87.1844 117.576 87.1842C117.577 87.1841 117.578 87.184 117.58 87.184C117.581 87.184 117.583 87.1841 117.584 87.1842C117.585 87.1844 117.585 87.1846 117.586 87.185C117.586 87.1854 117.587 87.1859 117.587 87.1866C117.587 87.1872 117.586 87.188 117.586 87.1889L117.571 87.2349ZM117.667 87.2246C117.667 87.2254 117.667 87.2262 117.667 87.2268C117.667 87.2274 117.666 87.2279 117.666 87.2284C117.666 87.2288 117.666 87.2292 117.666 87.2295C117.666 87.2298 117.666 87.2302 117.665 87.2306C117.665 87.231 117.664 87.2315 117.663 87.2321C117.662 87.2328 117.66 87.2334 117.659 87.234C117.657 87.2345 117.655 87.235 117.653 87.2354C117.651 87.2358 117.649 87.236 117.647 87.236C117.642 87.236 117.638 87.2352 117.634 87.2338C117.63 87.2324 117.627 87.2302 117.625 87.2274C117.622 87.2245 117.62 87.2209 117.618 87.2167C117.617 87.2124 117.616 87.2074 117.616 87.2017C117.616 87.1959 117.617 87.1908 117.619 87.1863C117.62 87.1818 117.622 87.178 117.625 87.175C117.628 87.1719 117.631 87.1696 117.635 87.168C117.639 87.1665 117.643 87.1657 117.648 87.1657C117.65 87.1657 117.652 87.1658 117.653 87.1661C117.655 87.1665 117.657 87.1669 117.658 87.1674C117.66 87.1679 117.661 87.1685 117.662 87.1691C117.663 87.1698 117.664 87.1704 117.665 87.1709C117.665 87.1713 117.666 87.1717 117.666 87.172C117.666 87.1724 117.666 87.1728 117.666 87.1732C117.666 87.1737 117.666 87.1743 117.666 87.175C117.666 87.1757 117.666 87.1765 117.666 87.1775C117.666 87.1785 117.666 87.1794 117.666 87.1801C117.666 87.1809 117.666 87.1815 117.666 87.1819C117.666 87.1824 117.666 87.1827 117.665 87.1829C117.665 87.1831 117.665 87.1832 117.665 87.1832C117.664 87.1832 117.663 87.1829 117.663 87.1824C117.662 87.1817 117.661 87.181 117.659 87.1803C117.658 87.1795 117.657 87.1788 117.655 87.1782C117.653 87.1776 117.651 87.1773 117.648 87.1773C117.646 87.1773 117.643 87.1779 117.641 87.179C117.639 87.1801 117.637 87.1816 117.636 87.1837C117.634 87.1858 117.633 87.1882 117.632 87.1911C117.632 87.194 117.631 87.1973 117.631 87.201C117.631 87.205 117.632 87.2084 117.633 87.2114C117.633 87.2143 117.635 87.2167 117.636 87.2186C117.638 87.2205 117.639 87.2219 117.642 87.2229C117.644 87.2238 117.646 87.2242 117.649 87.2242C117.651 87.2242 117.653 87.224 117.655 87.2234C117.657 87.2228 117.659 87.2221 117.66 87.2214C117.661 87.2207 117.662 87.2201 117.663 87.2196C117.664 87.219 117.664 87.2187 117.665 87.2187C117.665 87.2187 117.666 87.2188 117.666 87.2189C117.666 87.2191 117.666 87.2193 117.666 87.2198C117.666 87.2202 117.667 87.2208 117.667 87.2216C117.667 87.2223 117.667 87.2233 117.667 87.2246ZM117.721 87.2331C117.721 87.2334 117.721 87.2337 117.72 87.234C117.72 87.2343 117.72 87.2345 117.719 87.2347C117.719 87.2348 117.718 87.235 117.717 87.235C117.716 87.2351 117.715 87.2352 117.714 87.2352C117.713 87.2352 117.712 87.2351 117.711 87.235C117.71 87.235 117.709 87.2348 117.709 87.2347C117.708 87.2345 117.708 87.2343 117.708 87.234C117.708 87.2337 117.707 87.2334 117.707 87.2331V87.2063C117.707 87.204 117.707 87.2022 117.707 87.2009C117.707 87.1996 117.706 87.1985 117.706 87.1976C117.705 87.1967 117.704 87.1959 117.703 87.1955C117.702 87.1949 117.701 87.1947 117.7 87.1947C117.698 87.1947 117.696 87.1953 117.694 87.1965C117.693 87.1977 117.691 87.1995 117.689 87.2019V87.2331C117.689 87.2334 117.689 87.2337 117.689 87.234C117.689 87.2343 117.688 87.2345 117.688 87.2347C117.687 87.2348 117.687 87.235 117.686 87.235C117.685 87.2351 117.684 87.2352 117.682 87.2352C117.681 87.2352 117.68 87.2351 117.679 87.235C117.678 87.235 117.678 87.2348 117.677 87.2347C117.677 87.2345 117.676 87.2343 117.676 87.234C117.676 87.2337 117.676 87.2334 117.676 87.2331V87.1639C117.676 87.1635 117.676 87.1632 117.676 87.1629C117.676 87.1627 117.677 87.1624 117.677 87.1623C117.678 87.162 117.678 87.1619 117.679 87.1618C117.68 87.1617 117.681 87.1616 117.682 87.1616C117.684 87.1616 117.685 87.1617 117.686 87.1618C117.687 87.1619 117.687 87.162 117.688 87.1623C117.688 87.1624 117.689 87.1627 117.689 87.1629C117.689 87.1632 117.689 87.1635 117.689 87.1639V87.1898C117.691 87.1876 117.694 87.1859 117.696 87.1848C117.698 87.1837 117.701 87.1831 117.703 87.1831C117.707 87.1831 117.709 87.1837 117.712 87.1847C117.714 87.1858 117.716 87.1872 117.717 87.189C117.718 87.1909 117.719 87.193 117.72 87.1955C117.72 87.1979 117.721 87.2008 117.721 87.2043V87.2331ZM117.778 87.2331C117.778 87.2334 117.778 87.2337 117.778 87.234C117.778 87.2343 117.777 87.2345 117.777 87.2347C117.777 87.2348 117.776 87.235 117.775 87.235C117.775 87.2351 117.774 87.2352 117.773 87.2352C117.771 87.2352 117.771 87.2351 117.77 87.235C117.769 87.235 117.769 87.2348 117.768 87.2347C117.768 87.2345 117.767 87.2343 117.767 87.234C117.767 87.2337 117.767 87.2334 117.767 87.2331V87.2277C117.764 87.2305 117.762 87.2326 117.759 87.234C117.756 87.2354 117.754 87.2361 117.751 87.2361C117.747 87.2361 117.745 87.2355 117.743 87.2345C117.74 87.2334 117.739 87.232 117.737 87.2302C117.736 87.2284 117.735 87.2263 117.734 87.2239C117.734 87.2214 117.733 87.2184 117.733 87.2149V87.1861C117.733 87.1858 117.734 87.1855 117.734 87.1852C117.734 87.185 117.734 87.1847 117.735 87.1846C117.735 87.1844 117.736 87.1843 117.737 87.1842C117.738 87.1841 117.739 87.184 117.74 87.184C117.741 87.184 117.742 87.1841 117.743 87.1842C117.744 87.1843 117.745 87.1844 117.745 87.1846C117.746 87.1847 117.746 87.185 117.746 87.1852C117.747 87.1855 117.747 87.1858 117.747 87.1861V87.2127C117.747 87.2151 117.747 87.217 117.747 87.2183C117.747 87.2196 117.748 87.2207 117.749 87.2217C117.749 87.2226 117.75 87.2233 117.751 87.2238C117.752 87.2243 117.753 87.2246 117.755 87.2246C117.756 87.2246 117.758 87.2239 117.76 87.2227C117.761 87.2215 117.763 87.2197 117.765 87.2173V87.1861C117.765 87.1858 117.765 87.1855 117.765 87.1852C117.766 87.185 117.766 87.1847 117.766 87.1846C117.767 87.1844 117.768 87.1843 117.768 87.1842C117.769 87.1841 117.77 87.184 117.772 87.184C117.773 87.184 117.774 87.1841 117.775 87.1842C117.776 87.1843 117.776 87.1844 117.777 87.1846C117.777 87.1847 117.778 87.185 117.778 87.1852C117.778 87.1855 117.778 87.1858 117.778 87.1861V87.2331ZM117.825 87.2198C117.825 87.2225 117.824 87.2248 117.823 87.2269C117.822 87.2289 117.821 87.2306 117.819 87.232C117.817 87.2333 117.815 87.2344 117.812 87.235C117.81 87.2357 117.807 87.2361 117.804 87.2361C117.803 87.2361 117.801 87.2359 117.799 87.2357C117.798 87.2354 117.796 87.2351 117.795 87.2347C117.794 87.2343 117.793 87.2339 117.792 87.2334C117.791 87.233 117.79 87.2326 117.79 87.2323C117.79 87.2319 117.789 87.2313 117.789 87.2305C117.789 87.2297 117.789 87.2286 117.789 87.227C117.789 87.226 117.789 87.2252 117.789 87.2246C117.789 87.224 117.789 87.2235 117.789 87.2231C117.789 87.2227 117.79 87.2225 117.79 87.2224C117.79 87.2223 117.79 87.2222 117.791 87.2222C117.791 87.2222 117.792 87.2224 117.792 87.2229C117.793 87.2233 117.794 87.2238 117.795 87.2243C117.796 87.2248 117.798 87.2253 117.799 87.2258C117.8 87.2262 117.802 87.2264 117.804 87.2264C117.805 87.2264 117.806 87.2263 117.807 87.2261C117.808 87.2258 117.809 87.2255 117.81 87.225C117.81 87.2246 117.811 87.224 117.811 87.2233C117.812 87.2226 117.812 87.2218 117.812 87.2209C117.812 87.2198 117.811 87.2189 117.811 87.2182C117.81 87.2174 117.809 87.2167 117.808 87.2162C117.807 87.2156 117.806 87.2151 117.805 87.2146C117.803 87.2141 117.802 87.2136 117.8 87.213C117.799 87.2124 117.798 87.2117 117.796 87.2109C117.795 87.2102 117.794 87.2092 117.793 87.2081C117.792 87.207 117.791 87.2056 117.79 87.204C117.789 87.2025 117.789 87.2006 117.789 87.1983C117.789 87.1961 117.79 87.194 117.79 87.1922C117.791 87.1903 117.793 87.1887 117.794 87.1874C117.796 87.186 117.798 87.185 117.8 87.1842C117.803 87.1835 117.805 87.1831 117.808 87.1831C117.81 87.1831 117.811 87.1832 117.812 87.1835C117.814 87.1837 117.815 87.1839 117.816 87.1842C117.817 87.1846 117.818 87.1849 117.819 87.1853C117.82 87.1856 117.82 87.186 117.821 87.1862C117.821 87.1865 117.821 87.1868 117.821 87.187C117.822 87.1873 117.822 87.1876 117.822 87.188C117.822 87.1883 117.822 87.1888 117.822 87.1893C117.822 87.1899 117.822 87.1905 117.822 87.1913C117.822 87.1923 117.822 87.1931 117.822 87.1937C117.822 87.1943 117.822 87.1947 117.822 87.1951C117.822 87.1954 117.821 87.1957 117.821 87.1958C117.821 87.1959 117.821 87.196 117.82 87.196C117.82 87.196 117.82 87.1958 117.819 87.1955C117.818 87.1951 117.817 87.1947 117.816 87.1942C117.815 87.1938 117.814 87.1934 117.813 87.1931C117.812 87.1927 117.81 87.1925 117.809 87.1925C117.807 87.1925 117.806 87.1926 117.805 87.1929C117.805 87.1931 117.804 87.1935 117.803 87.1939C117.803 87.1944 117.802 87.1949 117.802 87.1956C117.802 87.1962 117.802 87.1968 117.802 87.1975C117.802 87.1986 117.802 87.1995 117.803 87.2002C117.803 87.201 117.804 87.2016 117.805 87.2022C117.806 87.2027 117.808 87.2033 117.809 87.2038C117.81 87.2043 117.812 87.2048 117.813 87.2054C117.815 87.206 117.816 87.2066 117.817 87.2074C117.819 87.2082 117.82 87.2091 117.821 87.2102C117.822 87.2114 117.823 87.2127 117.824 87.2143C117.824 87.2158 117.825 87.2177 117.825 87.2198ZM117.879 87.1844C117.881 87.1844 117.882 87.1847 117.882 87.1853C117.883 87.1859 117.883 87.1868 117.883 87.188V87.2331C117.883 87.2334 117.883 87.2337 117.883 87.234C117.883 87.2343 117.882 87.2345 117.882 87.2347C117.881 87.2348 117.881 87.235 117.88 87.235C117.879 87.2351 117.878 87.2352 117.877 87.2352C117.875 87.2352 117.874 87.2351 117.873 87.235C117.872 87.235 117.872 87.2348 117.871 87.2347C117.871 87.2345 117.87 87.2343 117.87 87.234C117.87 87.2337 117.87 87.2334 117.87 87.2331V87.1951H117.849V87.2171C117.849 87.2197 117.849 87.2216 117.85 87.2229C117.851 87.2242 117.852 87.2248 117.854 87.2248C117.855 87.2248 117.856 87.2248 117.856 87.2247C117.857 87.2245 117.857 87.2244 117.858 87.2242C117.858 87.2241 117.859 87.2239 117.859 87.2238C117.859 87.2237 117.859 87.2236 117.86 87.2236C117.86 87.2236 117.86 87.2237 117.86 87.2238C117.86 87.2239 117.861 87.2242 117.861 87.2246C117.861 87.2249 117.861 87.2254 117.861 87.226C117.861 87.2267 117.861 87.2275 117.861 87.2284C117.861 87.23 117.861 87.2312 117.861 87.232C117.861 87.2327 117.86 87.2333 117.86 87.2337C117.86 87.2341 117.859 87.2344 117.859 87.2347C117.858 87.2349 117.857 87.2351 117.857 87.2353C117.856 87.2355 117.855 87.2357 117.854 87.2358C117.853 87.2359 117.852 87.2359 117.851 87.2359C117.848 87.2359 117.846 87.2356 117.844 87.2349C117.842 87.2342 117.841 87.2332 117.839 87.2319C117.838 87.2305 117.837 87.2287 117.837 87.2266C117.836 87.2245 117.836 87.222 117.836 87.2191V87.1951H117.83C117.829 87.1951 117.829 87.1947 117.829 87.1939C117.828 87.193 117.828 87.1916 117.828 87.1897C117.828 87.1887 117.828 87.1878 117.828 87.1871C117.828 87.1864 117.828 87.1859 117.829 87.1855C117.829 87.1851 117.829 87.1848 117.829 87.1846C117.829 87.1844 117.83 87.1844 117.83 87.1844H117.836V87.1739C117.836 87.1735 117.836 87.1732 117.836 87.1729C117.836 87.1727 117.836 87.1724 117.837 87.1722C117.837 87.172 117.838 87.1719 117.839 87.1718C117.84 87.1717 117.841 87.1717 117.842 87.1717C117.844 87.1717 117.845 87.1717 117.845 87.1718C117.846 87.1719 117.847 87.172 117.847 87.1722C117.848 87.1724 117.848 87.1727 117.849 87.1729C117.849 87.1732 117.849 87.1735 117.849 87.1739V87.1844H117.879ZM117.884 87.1702C117.884 87.1729 117.884 87.1748 117.883 87.1758C117.882 87.1768 117.879 87.1773 117.877 87.1773C117.874 87.1773 117.872 87.1768 117.87 87.1758C117.869 87.1748 117.869 87.1731 117.869 87.1705C117.869 87.1678 117.869 87.166 117.871 87.165C117.872 87.1639 117.874 87.1634 117.877 87.1634C117.88 87.1634 117.882 87.1639 117.883 87.1649C117.884 87.1659 117.884 87.1677 117.884 87.1702ZM117.924 87.2349L117.918 87.2515C117.918 87.2524 117.917 87.253 117.915 87.2534C117.914 87.2538 117.912 87.254 117.909 87.254C117.908 87.254 117.907 87.2539 117.906 87.2538C117.905 87.2536 117.904 87.2535 117.904 87.2532C117.904 87.2529 117.903 87.2525 117.903 87.2521C117.903 87.2517 117.903 87.2512 117.904 87.2506L117.91 87.2349C117.909 87.2347 117.909 87.2343 117.909 87.2339C117.908 87.2335 117.908 87.233 117.908 87.2325L117.892 87.1893C117.891 87.1881 117.891 87.1872 117.891 87.1866C117.891 87.1859 117.891 87.1854 117.892 87.185C117.892 87.1846 117.893 87.1844 117.894 87.1842C117.895 87.1841 117.896 87.184 117.898 87.184C117.899 87.184 117.9 87.1841 117.901 87.1841C117.902 87.1842 117.903 87.1843 117.903 87.1845C117.904 87.1847 117.904 87.1851 117.905 87.1855C117.905 87.1859 117.905 87.1865 117.905 87.1874L117.916 87.2188H117.916L117.927 87.1867C117.927 87.1858 117.927 87.1852 117.927 87.1849C117.928 87.1846 117.928 87.1844 117.929 87.1842C117.93 87.1841 117.931 87.184 117.933 87.184C117.935 87.184 117.936 87.1841 117.937 87.1842C117.938 87.1844 117.939 87.1846 117.939 87.185C117.94 87.1854 117.94 87.1859 117.94 87.1866C117.94 87.1872 117.94 87.188 117.939 87.1889L117.924 87.2349Z" fill="white"/>
<path d="M233.248 87.2126C233.248 87.2129 233.248 87.2132 233.248 87.2135C233.247 87.2138 233.247 87.214 233.247 87.2142C233.246 87.2144 233.246 87.2146 233.245 87.2147C233.244 87.2148 233.243 87.2148 233.242 87.2148C233.241 87.2148 233.24 87.2148 233.239 87.2147C233.239 87.2146 233.238 87.2144 233.238 87.2142C233.237 87.214 233.237 87.2138 233.237 87.2135C233.237 87.2132 233.236 87.2129 233.236 87.2126L233.235 87.1648C233.235 87.1643 233.235 87.1639 233.235 87.1636C233.236 87.1632 233.236 87.1629 233.236 87.1627C233.237 87.1625 233.238 87.1623 233.239 87.1622C233.24 87.1621 233.241 87.162 233.242 87.162C233.244 87.162 233.245 87.1621 233.246 87.1623C233.247 87.1624 233.247 87.1625 233.248 87.1628C233.248 87.163 233.249 87.1633 233.249 87.1636C233.249 87.1639 233.249 87.1643 233.249 87.1648L233.248 87.2126ZM233.25 87.228C233.25 87.2294 233.249 87.2306 233.249 87.2316C233.249 87.2326 233.249 87.2334 233.248 87.234C233.247 87.2346 233.247 87.235 233.246 87.2352C233.245 87.2355 233.244 87.2357 233.242 87.2357C233.241 87.2357 233.24 87.2355 233.239 87.2352C233.238 87.235 233.237 87.2346 233.236 87.234C233.236 87.2334 233.235 87.2326 233.235 87.2316C233.235 87.2306 233.235 87.2294 233.235 87.228C233.235 87.2265 233.235 87.2253 233.235 87.2243C233.235 87.2233 233.236 87.2225 233.236 87.2219C233.237 87.2212 233.238 87.2208 233.239 87.2206C233.24 87.2203 233.241 87.2201 233.242 87.2201C233.244 87.2201 233.245 87.2203 233.246 87.2206C233.247 87.2208 233.247 87.2212 233.248 87.2219C233.249 87.2225 233.249 87.2233 233.249 87.2243C233.249 87.2253 233.25 87.2265 233.25 87.228Z" fill="white"/>
</svg>
